<svg width="25" height="24" viewBox="0 0 25 24" fill="none" xmlns="http://www.w3.org/2000/svg">
<path d="M17.3125 14.6667H16.2263L15.8413 14.3067C17.1888 12.7867 18 10.8133 18 8.66667C18 3.88 13.9988 0 9.0625 0C4.12625 0 0.125 3.88 0.125 8.66667C0.125 13.4533 4.12625 17.3333 9.0625 17.3333C11.2763 17.3333 13.3113 16.5467 14.8788 15.24L15.25 15.6133V16.6667L22.125 23.32L24.1738 21.3333L17.3125 14.6667V14.6667ZM9.0625 14.6667C5.63875 14.6667 2.875 11.9867 2.875 8.66667C2.875 5.34667 5.63875 2.66667 9.0625 2.66667C12.4863 2.66667 15.25 5.34667 15.25 8.66667C15.25 11.9867 12.4863 14.6667 9.0625 14.6667Z" fill="white"/>
</svg>
