<svg width="26" height="24" viewBox="0 0 26 24" fill="none" xmlns="http://www.w3.org/2000/svg">
<path d="M18.7292 0C16.4817 0 14.3246 1.04625 12.9167 2.69958C11.5088 1.04625 9.35167 0 7.10417 0C3.12583 0 0 3.12583 0 7.10417C0 11.9867 4.39167 15.965 11.0438 22.01L12.9167 23.7021L14.7896 21.9971C21.4417 15.965 25.8333 11.9867 25.8333 7.10417C25.8333 3.12583 22.7075 0 18.7292 0ZM13.0458 20.0854L12.9167 20.2146L12.7875 20.0854C6.63917 14.5183 2.58333 10.8371 2.58333 7.10417C2.58333 4.52083 4.52083 2.58333 7.10417 2.58333C9.09334 2.58333 11.0308 3.86208 11.7154 5.63167H14.1308C14.8025 3.86208 16.74 2.58333 18.7292 2.58333C21.3125 2.58333 23.25 4.52083 23.25 7.10417C23.25 10.8371 19.1942 14.5183 13.0458 20.0854Z" fill="white"/>
</svg>
