<svg width="27" height="26" viewBox="0 0 27 26" fill="none" xmlns="http://www.w3.org/2000/svg">
<path d="M19.25 16.4167H18.065L17.645 16.0229C19.115 14.3604 20 12.2021 20 9.85417C20 4.61875 15.635 0.375 10.25 0.375C4.865 0.375 0.5 4.61875 0.5 9.85417C0.5 15.0896 4.865 19.3333 10.25 19.3333C12.665 19.3333 14.885 18.4729 16.595 17.0438L17 17.4521V18.6042L24.5 25.8813L26.735 23.7083L19.25 16.4167ZM10.25 16.4167C6.515 16.4167 3.5 13.4854 3.5 9.85417C3.5 6.22292 6.515 3.29167 10.25 3.29167C13.985 3.29167 17 6.22292 17 9.85417C17 13.4854 13.985 16.4167 10.25 16.4167Z" fill="white"/>
</svg>
